<svg width="2146" height="1029" viewBox="0 0 2146 1029" fill="none" xmlns="http://www.w3.org/2000/svg">
<path d="M2146 10.163C1183 -58.2188 721.506 211.598 0 1029H771.964C896.802 584.565 1147.93 128.368 2146 95.8255V10.163Z" fill="#FB93AC"/>
<path d="M2145.26 52.5695C1228.19 43.1082 641.565 391.762 412.607 1029H683.292C825.817 568.898 1190.73 83.1653 2145.26 83.1653V52.5695Z" fill="#FAFFA3"/>
<path d="M2145.26 84.7478C1325.97 84.7478 772.619 422.922 651.134 1029H797.805C858.717 607.038 1231.54 135.644 2145.26 106.376V84.7478Z" fill="#68F1B9"/>
<path d="M2144.51 95.2961C1501.45 95.2961 848.713 452.426 799.534 1029H1168.88C1210.44 674.973 1314.14 184.819 2144.51 127.621V95.2961Z" fill="#009BE8" fill-opacity="0.56"/>
</svg>
